<svg xmlns="http://www.w3.org/2000/svg" width="64" height="64" viewBox="0 0 64 64"><g transform="matrix(3.77953 0 0 3.77953 -321.035 -1073.75)"><path fill="#d3d5e7" d="M94.794145 289.47607l.213814 0c.118446 0 .2138.0954.2138.2138l0 .21382c0 .11844-.09535.2138-.2138.2138l-.213814 0c-.118445 0-.2138-.0954-.2138-.2138l0-.21382c0-.11844.09536-.2138.2138-.2138zM91.587068 289.47607l.213814 0c.118445 0 .2138.0954.2138.2138l0 .21382c0 .11844-.09535.2138-.2138.2138l-.213814 0c-.118445 0-.2138-.0954-.2138-.2138l0-.21382c0-.11844.09535-.2138.2138-.2138z"/><path fill="#ad7759" d="m 92.442419,288.19284 c -0.355338,0 -0.641302,0.28648 -0.641302,0.64182 l 0,0.85524 c 0,0.0973 0.02307,0.18834 0.06149,0.27079 l 0.456303,0 c -0.05627,-0.0639 -0.09044,-0.1425 -0.09044,-0.22841 l 0,-0.72658 c 0,-0.20784 0.194837,-0.3751 0.439767,-0.38343 0.201512,0.008 0.223856,0.21239 0.62942,0.21239 0.405561,5.3e-4 0.427905,-0.20389 0.629417,-0.21239 0.244904,0.008 0.439251,0.17559 0.439251,0.38343 l 0,0.72658 c 0,0.0859 -0.03426,0.16447 -0.09043,0.22841 l 0.456819,0 c 0.03843,-0.0824 0.0615,-0.1735 0.0615,-0.27079 l 0,-0.85524 c 0,-0.35534 -0.285964,-0.64182 -0.641305,-0.64182 l -1.710491,0 z"/><path fill="#7f6773" d="m 93.952922,288.19284 c 0.355341,0 0.641306,0.28648 0.641306,0.64182 l 0,0.85524 c 0,0.0973 -0.0231,0.18839 -0.0615,0.27079 l 0.199988,0 c 0.03843,-0.0824 0.0615,-0.1735 0.0615,-0.27079 l 0,-0.85524 c 0,-0.35534 -0.285964,-0.64182 -0.641305,-0.64182 l -0.199988,0 z m -1.484664,0.42943 c -0.24493,0.008 -0.439766,0.1756 -0.439766,0.38343 l 0,0.72658 c 0,0.0859 0.03413,0.16451 0.09043,0.22841 l 0.199988,0 c -0.05627,-0.0639 -0.09044,-0.1425 -0.09044,-0.22841 l 0,-0.72658 c 0,-0.17342 0.136293,-0.31718 0.323496,-0.36535 -0.02513,-0.009 -0.05184,-0.0168 -0.08372,-0.0181 z m 1.258837,0 c -0.182959,0.008 -0.221226,0.17492 -0.529682,0.20567 0.03142,0.003 0.06271,0.007 0.100253,0.007 0.341307,2.6e-4 0.412014,-0.14339 0.545703,-0.1943 -0.03714,-0.01 -0.07571,-0.0168 -0.116274,-0.0181 z"/><path fill="#ffd039" d="m 89.235211,289.68988 8.124589,0 c 0.473788,0 0.855214,0.38143 0.855214,0.85521 l 0,5.13133 c 0,0.47379 -0.381426,0.85521 -0.855214,0.85521 l -8.124589,0 c -0.473788,0 -0.855214,-0.38142 -0.855214,-0.85521 l 0,-5.13133 c 0,-0.47378 0.381426,-0.85521 0.855214,-0.85521 z"/><path fill="#ad7759" d="M88.380015 295.24879l0 .42761c0 .47379.38143.85522.85522.85522l.42761 0 0-1.28283zM98.215035 295.2488l0 .42761c0 .47377-.38143.85522-.85522.85522l-.42761 0 0-1.28283zM98.215035 290.97271l0-.42761c0-.47377-.38143-.85522-.85522-.85522l-.42761 0 0 1.28283z"/><path fill="#f5ba00" d="m 97.232824,289.6899 c 0.01504,0.0881 0.02429,0.17829 0.02429,0.27079 l 0,4.49791 c 0,0.87947 -0.70803,1.5875 -1.5875,1.5875 l -7.203178,0 c 0.137742,0.28685 0.428347,0.48576 0.768946,0.48576 l 8.124568,0 c 0.473789,0 0.855244,-0.38146 0.855244,-0.85524 l 0,-5.13147 c 0,-0.47379 -0.381455,-0.85525 -0.855244,-0.85525 l -0.127125,0 z"/><path fill="#7f6773" d="m 97.232824,289.6899 c 0.01504,0.0881 0.02429,0.17829 0.02429,0.27079 l 0,1.01182 0.95808,0 0,-0.42736 c 0,-0.47377 -0.381455,-0.85525 -0.855244,-0.85525 l -0.127125,0 z m -0.186033,5.55884 c -0.03439,0.06 -0.07304,0.11683 -0.114724,0.17156 l 0,1.11156 0.427882,0 c 0.473789,0 0.855244,-0.38147 0.855244,-0.85524 l 0,-0.42788 -1.168402,0 z m -8.57984,0.79736 c 0.0024,0.005 0.0053,0.01 0.0078,0.0145 0.02845,0.0564 0.06326,0.10866 0.102836,0.15709 0.0092,0.0112 0.01765,0.0229 0.02739,0.0336 0.019,0.021 0.0395,0.0404 0.06046,0.0594 0.01468,0.0132 0.0299,0.0256 0.04548,0.0377 0.02045,0.0161 0.04063,0.0328 0.06253,0.047 5.29e-4,2.6e-4 0.0011,7.9e-4 0.0016,0.001 0.03626,0.0232 0.07445,0.0439 0.114204,0.0615 0.01389,0.006 0.02863,0.0106 0.04289,0.016 0.0342,0.013 0.06926,0.024 0.105418,0.0326 0.01455,0.003 0.02908,0.007 0.04393,0.01 0.05014,0.009 0.101161,0.0155 0.153996,0.0155 l 0.427365,0 0,-0.48576 -1.195795,0 z"/><path fill="#ad7759" d="m 88.380015,290.97271 0,-0.42761 c 0,-0.47379 0.38143,-0.85522 0.85522,-0.85522 l 0.42761,0 0,1.28283 z"/><path fill="#ffd039" d="M89.23522 290.3313a.21380471.21380471 0 0 1-.213804.2138.21380471.21380471 0 0 1-.213805-.2138.21380471.21380471 0 0 1 .213805-.21381.21380471.21380471 0 0 1 .213804.21381zM89.23522 295.8902a.21380471.21380471 0 0 1-.213804.2138.21380471.21380471 0 0 1-.213805-.2138.21380471.21380471 0 0 1 .213805-.21381.21380471.21380471 0 0 1 .213804.21381zM97.787405 295.8902a.21380471.21380471 0 0 1-.213804.2138.21380471.21380471 0 0 1-.213805-.2138.21380471.21380471 0 0 1 .213805-.21381.21380471.21380471 0 0 1 .213804.21381zM97.787405 290.3313a.21380471.21380471 0 0 1-.213804.2138.21380471.21380471 0 0 1-.213805-.2138.21380471.21380471 0 0 1 .213805-.21381.21380471.21380471 0 0 1 .213804.21381z"/><path fill="gray" d="m 92.014684,291.4003 a 0.32070705,0.32070705 0 0 1 -0.320707,0.32071 0.32070705,0.32070705 0 0 1 -0.320707,-0.32071 0.32070705,0.32070705 0 0 1 0.320707,-0.32071 0.32070705,0.32070705 0 0 1 0.320707,0.32071 z"/><path fill="#fff" d="m 92.228489,291.4003 a 0.5345118,0.5345118 0 0 1 -0.534512,0.53451 0.5345118,0.5345118 0 0 1 -0.534511,-0.53451 0.5345118,0.5345118 0 0 1 0.534511,-0.53451 0.5345118,0.5345118 0 0 1 0.534512,0.53451 z"/><path fill="#ff5751" d="m 92.014684,291.4003 a 0.32070705,0.32070705 0 0 1 -0.320707,0.32071 0.32070705,0.32070705 0 0 1 -0.320707,-0.32071 0.32070705,0.32070705 0 0 1 0.320707,-0.32071 0.32070705,0.32070705 0 0 1 0.320707,0.32071 z"/><path fill="#70b489" d="m 89.021416,292.68314 0.855219,0 0,0.85521 -0.855219,0 z"/><path fill="#fff" d="m 227.7466,207.45932 1.49663,0 0,0.85522 -1.49663,0 z" transform="rotate(30)"/><path fill="#70b489" d="m 94.651965,291.82793 1.19306,0.0716 -0.53451,0.92582 z"/><path fill="#3b8eff" d="m 90.731865,295.17769 1.19306,0.0716 -0.53451,0.92581 z"/><path fill="#ad7759" d="M90.304253 289.68988l.641414 0 0 6.84175-.641414 0zM95.649361 289.68988l.641414 0 0 6.84175-.641414 0z"/><path fill="#ff5751" d="m 292.25552,-97.787407 1.49664,0 0,0.855219 -1.49664,0 z" transform="rotate(90)"/><path fill="#d3d5e7" fill-rule="evenodd" style="line-height:normal;text-indent:0;text-align:start;text-decoration-line:none;text-decoration-style:solid;text-decoration-color:#000;text-transform:none;isolation:auto;mix-blend-mode:normal" d="M90.493445 289.90432l.26367 0 0-.21484-.26367 0zm0 .42774l.26367 0 0-.21485-.26367 0zm0 .42773l.26367 0 0-.21484-.26367 0zm0 .42578l.26367 0 0-.21289-.26367 0zm0 .42774l.26367 0 0-.21289-.26367 0zm0 .42773l.26367 0 0-.21289-.26367 0zm0 .42774l.26367 0 0-.21289-.26367 0zm0 .42773l.26367 0 0-.21289-.26367 0zm0 .42773l.26367 0 0-.21289-.26367 0zm0 .42774l.26367 0 0-.21289-.26367 0zm0 .42773l.26367 0 0-.21289-.26367 0zm0 .42774l.26367 0 0-.21289-.26367 0zm0 .42773l.26367 0 0-.21484-.26367 0zm0 .42774l.26367 0 0-.21485-.26367 0zm0 .42773l.26367 0 0-.21484-.26367 0zm0 .42774l.26367 0 0-.21485-.26367 0zM95.837195 289.90432l.26562 0 0-.21484-.26562 0zm0 .42774l.26562 0 0-.21485-.26562 0zm0 .42773l.26562 0 0-.21484-.26562 0zm0 .42578l.26562 0 0-.21289-.26562 0zm0 .42774l.26562 0 0-.21289-.26562 0zm0 .42773l.26562 0 0-.21289-.26562 0zm0 .42774l.26562 0 0-.21289-.26562 0zm0 .42773l.26562 0 0-.21289-.26562 0zm0 .42773l.26562 0 0-.21289-.26562 0zm0 .42774l.26562 0 0-.21289-.26562 0zm0 .42773l.26562 0 0-.21289-.26562 0zm0 .42774l.26562 0 0-.21289-.26562 0zm0 .42773l.26562 0 0-.21484-.26562 0zm0 .42774l.26562 0 0-.21485-.26562 0zm0 .42773l.26562 0 0-.21484-.26562 0zm0 .42774l.26562 0 0-.21485-.26562 0z" color="#000" font-family="sans-serif" font-weight="400" overflow="visible" white-space="normal"/><path fill="#7f6773" d="m 96.290765,295.92053 c -0.190622,0.0807 -0.40046,0.12557 -0.621152,0.12557 l -0.02016,0 0,0.48576 0.641305,0 0,-0.61133 z m -5.986717,0.12557 0,0.48576 0.641821,0 0,-0.48576 -0.641821,0 z"/><path fill="#b1b4d4" fill-rule="evenodd" style="line-height:normal;text-indent:0;text-align:start;text-decoration-line:none;text-decoration-style:solid;text-decoration-color:#000;text-transform:none;isolation:auto;mix-blend-mode:normal" d="m 90.493186,296.10346 0,0.21498 0.264065,0 0,-0.21498 z m 5.343858,0 0,0.21498 0.265618,0 0,-0.21498 z" color="#000" font-family="sans-serif" font-weight="400" overflow="visible" white-space="normal"/><path fill="#d34f5c" d="m 97.257113,292.25564 0,1.49655 0.530201,0 0,-1.49655 -0.530201,0 z"/><path fill="#4d88e7" d="m 91.305023,296.0461 0.08526,0.12919 0.07441,-0.12919 -0.159678,0 z"/><path fill="#f5ba00" d="m 88.875195,296.0461 a 0.2138047,0.2138047 0 0 0 0.146246,0.0579 0.2138047,0.2138047 0 0 0 0.145727,-0.0579 l -0.291973,0 z"/><path fill="#fff" style="line-height:normal;text-indent:0;text-align:start;text-decoration-line:none;text-decoration-style:solid;text-decoration-color:#000;text-transform:none;block-progression:tb;isolation:auto;mix-blend-mode:normal" d="m 88.498047,291.54883 a 0.13230489,0.13230489 0 0 0 -0.117188,0.13476 l 0,0.67383 0,0.91211 a 0.13230489,0.13230489 0 1 0 0.263672,0 l 0,-0.91211 0,-0.67383 a 0.13230489,0.13230489 0 0 0 -0.146484,-0.13476 z m 0,2.3789 a 0.13230489,0.13230489 0 0 0 -0.117188,0.13477 l 0,0.5293 a 0.13230489,0.13230489 0 1 0 0.263672,0 l 0,-0.5293 a 0.13230489,0.13230489 0 0 0 -0.146484,-0.13477 z" color="#000" font-family="sans-serif" font-weight="400" opacity=".3" overflow="visible" white-space="normal"/></g></svg>